{
 "cells": [
  {
   "cell_type": "code",
   "execution_count": null,
   "metadata": {},
   "outputs": [],
   "source": []
  },
  {
   "cell_type": "code",
   "execution_count": 1,
   "metadata": {},
   "outputs": [],
   "source": [
    "from chembench import dataset,load_data\n",
    "import pandas as pd"
   ]
  },
  {
   "cell_type": "code",
   "execution_count": 3,
   "metadata": {},
   "outputs": [
    {
     "name": "stdout",
     "output_type": "stream",
     "text": [
      "total samples: 2039\n",
      "total samples: 8755\n"
     ]
    },
    {
     "data": {
      "text/plain": [
       "<chembench.dataset.data at 0x7ff5df65b240>"
      ]
     },
     "execution_count": 3,
     "metadata": {},
     "output_type": "execute_result"
    }
   ],
   "source": [
    "dataset.load_BBBP()\n",
    "dataset.load_LMC()"
   ]
  },
  {
   "cell_type": "code",
   "execution_count": 11,
   "metadata": {},
   "outputs": [
    {
     "data": {
      "text/plain": [
       "0    [1, 2, 3, 4, 5, 6, 7, 8, 9, 10, 11, 12, 13, 15...\n",
       "1    [0, 25, 27, 42, 44, 92, 97, 120, 125, 138, 140...\n",
       "2    [14, 28, 32, 51, 77, 98, 102, 114, 119, 136, 1...\n",
       "dtype: object"
      ]
     },
     "execution_count": 11,
     "metadata": {},
     "output_type": "execute_result"
    }
   ],
   "source": [
    "pd.read_pickle('./ClinTox.random122.ind.pkl')"
   ]
  },
  {
   "cell_type": "code",
   "execution_count": 14,
   "metadata": {},
   "outputs": [
    {
     "name": "stdout",
     "output_type": "stream",
     "text": [
      "loading dataset: ClinTox number of split times: 3\n"
     ]
    }
   ],
   "source": [
    "df, idx = load_data('ClinTox')"
   ]
  },
  {
   "cell_type": "code",
   "execution_count": 15,
   "metadata": {},
   "outputs": [
    {
     "data": {
      "text/plain": [
       "0    [1, 2, 4, 5, 6, 8, 9, 10, 11, 12, 13, 14, 15, ...\n",
       "1    [7, 18, 26, 71, 77, 91, 105, 108, 111, 112, 12...\n",
       "2    [0, 3, 17, 29, 31, 32, 40, 46, 61, 67, 99, 100...\n",
       "dtype: object"
      ]
     },
     "execution_count": 15,
     "metadata": {},
     "output_type": "execute_result"
    }
   ],
   "source": [
    "pd.Series(idx[0])"
   ]
  },
  {
   "cell_type": "code",
   "execution_count": null,
   "metadata": {},
   "outputs": [],
   "source": []
  }
 ],
 "metadata": {
  "kernelspec": {
   "display_name": "Python 3",
   "language": "python",
   "name": "python3"
  },
  "language_info": {
   "codemirror_mode": {
    "name": "ipython",
    "version": 3
   },
   "file_extension": ".py",
   "mimetype": "text/x-python",
   "name": "python",
   "nbconvert_exporter": "python",
   "pygments_lexer": "ipython3",
   "version": "3.6.10"
  }
 },
 "nbformat": 4,
 "nbformat_minor": 4
}
